<mxfile host="app.diagrams.net" modified="2024-01-24T01:58:02.250Z" agent="Mozilla/5.0 (Macintosh; Intel Mac OS X 10_15_7) AppleWebKit/605.1.15 (KHTML, like Gecko) Version/16.6 Safari/605.1.15" version="23.0.0" etag="0_n8V2JOqYqvJQIalEGV" type="github">
  <diagram name="第 1 页" id="B7oGHM8cSMBla9ikwoQn">
    <mxGraphModel>
      <root>
        <mxCell id="0" />
        <mxCell id="1" parent="0" />
      </root>
    </mxGraphModel>
  </diagram>
</mxfile>
